<?xml version="1.0" encoding="UTF-8"?>
<svg id="Layer_1" xmlns="http://www.w3.org/2000/svg" version="1.1" viewBox="0 0 512 512">
  <!-- Generator: Adobe Illustrator 29.2.1, SVG Export Plug-In . SVG Version: 2.1.0 Build 116)  -->
  <rect width="512" height="512" rx="64" ry="64" fill="#172554"/>
  <g>
    <path d="M46.7,328.2v-144.4c0-41.5,21.5-66,62.2-66s62.2,24.6,62.2,66v28.4h-39.9v-31.1c0-17.7-8.4-25-21.1-25s-21.1,7.3-21.1,25v150.1c0,17.7,8.4,24.6,21.1,24.6s21.1-6.9,21.1-24.6v-39.2h39.9v36.1c0,41.5-21.5,66-62.2,66s-62.2-24.6-62.2-66h0Z" fill="#fff"/>
    <path d="M196.1,121.6h63.7c43.8,0,62.6,20.4,62.6,61.8v10.8c0,27.6-8.4,44.9-27.3,52.6v.8c22.7,7.7,31.5,27.6,31.5,56.1v23c0,41.5-21.9,63.7-64.1,63.7h-66.4V121.6h0ZM254.9,231c15.7,0,25.3-6.9,25.3-28.4v-15c0-19.2-6.5-27.6-21.5-27.6h-20.4v71h16.6ZM262.5,352c14.2,0,21.9-6.5,21.9-26.5v-23.4c0-25-8.1-32.6-27.3-32.6h-18.8v82.6h24.2Z" fill="#fff"/>
    <path d="M343.9,326.7v-15.4h39.9v18.4c0,19.2,8.4,26.1,21.9,26.1s22.3-6.9,22.3-26.9-9.2-36.1-36.9-60.3c-35.3-31.1-47.2-53.4-47.2-84.1s21.9-66.8,63-66.8,61.4,24.6,61.4,67.6v11.1h-39.9v-13.8c0-19.2-7.7-26.5-21.1-26.5s-21.5,7.3-21.5,25.7,9.6,33.4,37.2,57.6c35.3,31.1,46.8,53,46.8,86.4s-22.3,68.4-63.7,68.4-62.2-24.6-62.2-67.6h0Z" fill="#fff"/>
  </g>
</svg>